<svg id="Calque_1" data-name="Calque 1" xmlns="http://www.w3.org/2000/svg" viewBox="0 0 387.84 499.79"><defs><style>.cls-1{fill:#848484;}.cls-2{fill:#0a0a0a;}.cls-3{fill:#4d4d4d;}.cls-4{fill:#4e4e4e;}.cls-5{fill:#fefefe;}</style></defs><path d="M77.66,43.2v-6c1.4-5.25,2.67-10.57,5.74-15.15,7.68-11.46,17.19-20.1,32-20.32h5.23q94,0,188,0c1.95,0,4,.51,5.87-.49h6C345,3.84,359.11,26,359,47.8c-.24,37.46,0,74.92-.15,112.39,0,4.89,1.29,8.64,5,11.85,16.38,14.2,30.18,31,46,45.76,10.36,9.67,20.5,19.51,29.37,30.54,12.67,15.74,20.43,33.81,24.63,53.5.94,4.38.07,9,1.71,13.24v8a19.93,19.93,0,0,0,0,10v8c-1.81,4.57-1.05,9.49-2,14.21q-13.28,65.28-26.21,130.63a28.06,28.06,0,0,1-1.86,6.72c-2.42,5-5.94,8.41-12,7.86H115.55c-14.88-.13-24.41-8.81-32.13-20.28-3.09-4.59-4.34-9.93-5.76-15.19v-6c1-1.72.49-3.59.49-5.38q0-202.53,0-405.06C78.15,46.79,78.63,44.91,77.66,43.2Z" transform="translate(-77.66 -1.21)"/><path class="cls-1" d="M77.66,43.2c2,1.34,1,3.36,1,5q.09,203.15,0,406.28c0,1.5.93,3.36-1,4.52Z" transform="translate(-77.66 -1.21)"/><path class="cls-2" d="M424.73,500.09a1.36,1.36,0,0,0-.21.92H119.64a.58.58,0,0,1-.33-.57c0-.22.1-.34.17-.34q88.17,0,176.35-.09Q360.29,500,424.73,500.09Z" transform="translate(-77.66 -1.21)"/><path class="cls-2" d="M314.56,1.21c-1,1.27-2.37,1-3.67,1q-95.71,0-191.43-.1a.55.55,0,0,1,.18-.89Z" transform="translate(-77.66 -1.21)"/><path class="cls-3" d="M119.64,1.21a4.63,4.63,0,0,1-.18.9l-5,0a2.59,2.59,0,0,0,.17-.87Z" transform="translate(-77.66 -1.21)"/><path class="cls-4" d="M119.48,500.1a4.69,4.69,0,0,1,.16.91h-5a1.83,1.83,0,0,0-.17-.87Z" transform="translate(-77.66 -1.21)"/><path class="cls-5" d="M203.72,290.19c-2.45-1.21-4.31-2.24-6.25-3.06-24.59-10.38-48.33-9-70,6.94-24.73,18.17-24.33,50.41.32,68.7,11,8.16,23.32,12.11,37.2,12.45,15.86.38,30.46-2.49,43.32-12.12,12.51-9.37,19.25-21.59,19.19-37.56-.15-43.31,0-86.62,0-129.93v-5.92c18.52,7.58,33.18,18.68,43.49,35.27,2,3.25-.85,3.71-2.28,4.8-18,13.77-23.79,37.27-13.93,57.23a53,53,0,0,0,9.76,13.19c17.23,17.87,34.33,35.85,51.68,53.6,2.9,3,2.46,4.17-.53,6.61A120.2,120.2,0,0,0,282,404.45c-1.29,2.87-2.73,3.83-5.87,3.83q-82.21-.16-164.41,0c-3.61,0-4.28-1-4.28-4.43q.14-178.41.09-356.81c0-10.83,5.83-16.63,16.67-16.63q93.45,0,186.9,0c10.7,0,17,5.73,17,16q.1,93.15,0,186.34c-7.56-3-8.94-5.11-7.68-12.37,6.11-35.19-5.8-63.05-34.11-84.33-12.5-9.39-26.44-16.9-37.75-27.85-9.61-9.3-18.15-19.45-21.71-32.88-1.44-5.44-7.46-9.54-12.4-9-5.28.62-10,5.47-10.6,11.11a43.65,43.65,0,0,0-.12,5V290.19Z" transform="translate(-77.66 -1.21)"/><path class="cls-5" d="M357.39,208c3.84,4,6.61,7,9.5,9.89,12.57,12.63,25.1,25.31,37.8,37.82,26.57,26.19,35.76,57.7,28.62,94-7.72,39.35-15.89,78.62-23.65,118-.68,3.44-2,4.18-5.16,4.17-35-.1-70-.06-104.94-.08-2,0-4.38.81-4-3,2.44-26.65,9.19-51.74,26.16-73.15a75.6,75.6,0,0,1,26.93-21.78c9.63-4.58,12.05-15.49,4.74-23.26-18.94-20.14-38-40.15-57.6-59.68-4.06-4.06-8.34-7.74-11.84-12.42-6.2-8.31-6.13-18,.87-24.2s16.7-5.46,24.08,2q33.61,33.87,67.19,67.79c3.7,3.75,7.86,6.27,13.24,5.66,5.92-.67,10.23-3.77,12.29-9.53,2.13-5.93.77-11.2-3.59-15.58-12.31-12.42-24.64-24.83-37.16-37.05a10.84,10.84,0,0,1-3.52-8.72c.18-14.83.07-29.65.07-44.48Z" transform="translate(-77.66 -1.21)"/><path class="cls-5" d="M188.61,437.57c25.82,0,51.64.07,77.45-.08,3.81,0,4.73.58,3.79,4.6a132.84,132.84,0,0,0-3.44,25.69c-.11,3.15-1.23,4.11-4.49,4.11-46.14-.12-92.28-.06-138.42-.1-9.9,0-15.88-6-16-15.81-.05-4.83.25-9.68-.1-14.48-.25-3.54,1.2-4,4.25-4C137.31,437.62,163,437.58,188.61,437.57Z" transform="translate(-77.66 -1.21)"/></svg>