<svg id="Calque_1" data-name="Calque 1" xmlns="http://www.w3.org/2000/svg" viewBox="0 0 499.81 437.8"><defs><style>.cls-1{fill:#0f0f0f;}.cls-2{fill:#0a0a0a;}.cls-3{fill:#464646;}.cls-4{fill:#6d6d6d;}.cls-5{fill:#6f6f6f;}.cls-6{fill:#454545;}.cls-7{fill:#b9b9b9;}.cls-8{fill:#7b7b7b;}.cls-9{fill:#a4a4a4;}.cls-10{fill:#fefefe;}.cls-11{fill:#fdfdfd;}.cls-12{fill:#fafafa;}</style></defs><path d="M143,468.9h-2c-1.71-1-3.58-.49-5.36-.49q-45.81-.06-91.61,0c-6.83.16-10.7-3.63-12.88-9.67a32.29,32.29,0,0,1-1.55-11.3c0-22.59-.09-45.18.09-67.78,0-4.72-1.45-7.54-5.75-9.82-12.35-6.53-20.81-16.3-23.2-30.53A3.69,3.69,0,0,0,.1,338v-8c1.1-3.39.44-6.88.47-10.32.1-11.6.06-23.2,0-34.8,0-1.62.45-3.32-.49-4.86v-4c.81-.82.41-1.86.51-2.8,0-.76.16-1.58-.51-2.2v-3c2.4-20.22,11.4-37.32,25-52.11a84.57,84.57,0,0,1,15.71-13c4.12-2.72,4.08-3,.67-6.68-26.13-28.27-25.41-71.94,2-98.79C55.15,86,69.32,79.49,85.69,77.6c38.33-4.43,71.39,23.63,77.07,57.49,3.44,20.5-1.11,38.95-13.32,55.62-3.26,4.45-3.28,4.8,1.61,7.29,10.23,5.23,20.55,10.27,30.82,15.44,4.56,2.29,4.79,2.13,4.79-3.23q0-63.69,0-127.38c0-7.87.91-15.62,3.86-23,5-12.4,13.91-20.92,26-26.29a19.58,19.58,0,0,1,8.82-1.43q118.38-1.2,236.73,0c14.65.42,24,9.17,31.78,20.32,3.45,5,5,10.76,6,16.66v7c-1,1.72-.49,3.59-.49,5.38q0,84.71,0,169.39c.25,2.37-.57,4.83.51,7.15v1c-2,8.33-4.93,16.06-11,22.51-10.22,10.89-22.87,15.73-37.5,15.82-21.14.12-42.28,0-63.42,0-5.77,0-5.77,0-3.82,5.4,17.31,47.72,35,95.3,52.51,142.93,2.18,5.93,2.5,11.72-1.35,17.14-2.32,3.26-5.24,5.57-9.5,5.56H419.4c-7.06-.2-10.1-5.23-12.31-10.76-5-12.52-9.49-25.24-14.08-37.92-12.64-34.92-25.79-69.64-38.41-104.56-1.64-4.54-3.23-9.1-4.94-13.62-1.08-2.88-2.76-4.23-5.91-4.27s-4.75,1.44-5.79,4.33c-8.18,22.72-16.51,45.37-24.69,68.09-10.48,29.14-21.22,58.18-31.84,87.27-2.16,5.93-5.31,11.31-12.87,11.44H262a14.64,14.64,0,0,1-12-16.68,36.23,36.23,0,0,1,2.07-7.19q25.54-70.71,51.33-141.33c1.9-5.19,1.54-5.76-4-5.77-12.65,0-25.31.06-38-.06-3.89,0-6.48,1.4-8.79,4.53-10.58,14.39-30.63,20.17-47.41,13.66-12.14-4.71-23.37-11.34-35.08-16.94-1.81-.86-3.58-1.78-5.37-2.68-8.34-4.2-8.34-4.19-8.34,4.9V445.21c0,1.67,0,3.33,0,5C156.36,461.28,153.26,465.6,143,468.9Z" transform="translate(-0.1 -31.1)"/><path class="cls-1" d="M462.93,32.06l1,1C389,30.84,314,32.75,239.08,32c-5.18,0-10.16,1.81-15.34,1,1.38-1.67,3.88-.22,5.27-1.89H457.92C459.42,32.33,461.42,30.93,462.93,32.06Z" transform="translate(-0.1 -31.1)"/><path class="cls-2" d="M499,252.15q-.06-86.19-.09-172.39c0-1.3-.27-2.71,1-3.68V252A.52.52,0,0,1,499,252.15Z" transform="translate(-0.1 -31.1)"/><path class="cls-3" d="M43.08,468.9c0-.31-.09-.61-.11-.92q47.49,0,95-.06c1.1,0,2.38-.33,3.09,1Z" transform="translate(-0.1 -31.1)"/><path class="cls-2" d="M.1,280c1.25,1,1,2.36,1,3.66q0,21.33,0,42.67c0,1.29.27,2.69-1,3.65Z" transform="translate(-0.1 -31.1)"/><path class="cls-4" d="M269.09,468a2.52,2.52,0,0,1-.1.9h-7l0-1Z" transform="translate(-0.1 -31.1)"/><path class="cls-5" d="M418.93,468.9a3.1,3.1,0,0,0,0-1H426a2.44,2.44,0,0,0,0,1Z" transform="translate(-0.1 -31.1)"/><path class="cls-6" d="M499,252.15a6.76,6.76,0,0,1,.9-.15v6C497.51,256.37,499.5,254.07,499,252.15Z" transform="translate(-0.1 -31.1)"/><path class="cls-7" d="M462.93,32.06c-1.75.12-3.55.46-5-1h5A3.43,3.43,0,0,0,462.93,32.06Z" transform="translate(-0.1 -31.1)"/><path class="cls-8" d="M1,273c.11,1.12.53,2.34-.87,3v-3C.37,272.54.66,272.55,1,273Z" transform="translate(-0.1 -31.1)"/><path class="cls-9" d="M1,273c-.29,0-.58,0-.87,0v-2C1.41,271.19,1.08,272.11,1,273Z" transform="translate(-0.1 -31.1)"/><path class="cls-10" d="M258.07,266.66c1.31-2.74,2.25-4.8,3.27-6.83q16.21-32.32,32.45-64.64c2.92-5.81,3.24-11.53-.87-16.91-3.69-4.82-8.74-6.47-14.63-5.34-5.15,1-8.4,4.33-10.68,8.91-9.4,18.91-19,37.73-28.21,56.71-1.64,3.37-2.89,4.07-6.15,2.05-4.92-3.05-12.33-3.77-14.84-8.42-2.39-4.4-.71-11-.71-16.69q0-67.21,0-134.43c0-14.41,5.93-20.4,20.21-20.4H450.31c14.18,0,20.39,6.22,20.39,20.42q0,82.71,0,165.41c0,13.72-6.46,20.15-20.23,20.16H258.07Z" transform="translate(-0.1 -31.1)"/><path class="cls-10" d="M125.58,350.89c0,27.81-.09,55.61.1,83.42,0,4-1.1,4.94-5,4.9q-28-.3-55.94,0c-3.33,0-4.09-.93-4.08-4.14.14-24,.09-47.95.07-71.93,0-12.15-4.27-17-16.2-18.31-8.23-.93-14.82-7-15-15.4-.41-18.3-1.49-36.7.41-54.9,3.48-33.39,29.69-56,64.13-57.16,17.19-.56,33.12,2.55,48.54,10.63,26.34,13.82,53.2,26.64,79.83,39.89,7.42,3.69,9.65,8.15,6.86,13.58-3.12,6-9.2,7.68-16.23,4.16q-32.15-16-64.23-32.18c-4.63-2.33-9.35-3.58-14.34-1.29s-8,5.88-8.6,11.34a54.14,54.14,0,0,0-.32,6Q125.56,310.18,125.58,350.89Z" transform="translate(-0.1 -31.1)"/><path class="cls-10" d="M133.27,147.27c.66,21.81-17.38,40.37-39.71,40.85C72,188.58,53.5,170.56,53,148.56c-.55-21.79,17.62-40.41,39.83-40.83C114.5,107.33,132.6,125,133.27,147.27Z" transform="translate(-0.1 -31.1)"/><path d="M338.48,256.61c10.45,3.23,18.24-2.29,19.34-13.09.75-7.39-1-14.58-2-21.82-.32-2.18-1.75-2.11-3.31-1.87-29.35,4.43-52.69-33.74-38-62.05,6.13-11.81,15.38-20.81,25.08-29.46,2.65-2.37,3.55-4.47,2.84-8.11a72.88,72.88,0,0,1,1.51-34.59,41.12,41.12,0,0,1,11.61-18.87c5.24-4.91,9.74-4.27,12.92,2.47a58.66,58.66,0,0,1,5.25,32.1c-1.73,15.16-7.52,28.54-18.75,39.19-1.69,1.6-2.24,3.13-1.64,5.24a6.86,6.86,0,0,1,.3,1.47c.19,7.23,1.6,11.64,10.78,13.62,12.38,2.67,17.34,14,18.1,26,.8,12.53-4.33,22.83-15.77,28.9-3.15,1.68-3.77,3-3.14,6.33a107,107,0,0,1,2.21,22.82c-.31,10.85-7.71,18.53-20.37,21-8.07,1.58-20.52-5.53-23.63-13.49a17,17,0,0,1,5.4-19.27,12.23,12.23,0,0,1,17.26,2.69c4.24,5.79,3.27,14.36-2.12,18.41C341.29,255,340.13,255.6,338.48,256.61Z" transform="translate(-0.1 -31.1)"/><path class="cls-11" d="M350.22,179.89c1.32,10.27,2.49,20,3.84,29.67.51,3.59-2.14,2.71-3.79,2.85-15.14,1.28-35.24-13.69-27.46-35,4.46-12.19,12.87-21,22.92-29.17.34,1.87.52,3.17.82,4.44,1.11,4.79.54,8-4.46,11.26-13.85,9-15.33,28.06-3.74,38.08a15.26,15.26,0,0,0,2.37,1.8c2.07,1.19,4.75,2.38,6.51.72,2.2-2.06-.72-3.76-1.77-5.36C340.62,191.88,342.09,184.87,350.22,179.89Z" transform="translate(-0.1 -31.1)"/><path class="cls-11" d="M366,92.48c-1.17,10-6.73,18.65-14.75,25.88-2.53,2.29-2.2-.36-2.25-1.59a50,50,0,0,1,7.54-28.46c1.47-2.4,3.58-4.21,6.64-3.13S366,89,366,92.48Z" transform="translate(-0.1 -31.1)"/><path class="cls-12" d="M358.23,179.27c11.33,3.31,13.34,17.43,4,27.88C360.81,204.13,358,184.69,358.23,179.27Z" transform="translate(-0.1 -31.1)"/></svg>