<svg id="Calque_1" data-name="Calque 1" xmlns="http://www.w3.org/2000/svg" viewBox="0 0 1047.28 331.65"><path d="M857.27,562.84c-7-2-13.95-3.67-21-5-3.52-.68-7.06-1.31-10.6-1.86s-7.1-.82-10.62-1.28a158.42,158.42,0,0,0-42.38,2,224.53,224.53,0,0,0-41,11.22c-6.67,2.45-13.22,5.22-19.66,8.19-1.62.74-3.21,1.51-4.8,2.3S704,580,702.45,580.8c-3.14,1.59-6.32,3.33-9.2,5.07l-4.41,2.65-1.47-4.84L683,569.14q-2.22-7.26-4.33-14.56c-2.83-9.72-5.77-19.41-8.49-29.17s-5.56-19.48-8.19-29.27l-4-14.66-3.88-14.7-.06-.24v-.16l.06.37-3.4-13.38.14.23,0,0-.17-.2v-.22l0,.16-2.14-8.77,3.19,8.44v.2l-.16-.39,0,0,.08.07.06.15,4.74,13,0,.12,0,.26v0l-.06-.38,5.09,14.33c1.7,4.78,3.31,9.58,5,14.36,3.34,9.57,6.5,19.19,9.72,28.79,1.63,4.8,3.19,9.62,4.74,14.43l4.7,14.45q2.35,7.22,4.64,14.46l4.57,14.49-5.88-2.19c3.28-2,6.43-3.73,9.72-5.43,1.63-.85,3.26-1.68,4.92-2.47s3.29-1.59,5-2.34c3.32-1.55,6.69-3,10.07-4.38l5.12-2c1.7-.67,3.44-1.25,5.16-1.88,3.43-1.28,7-2.33,10.44-3.44,1.76-.51,3.53-1,5.29-1.48s3.53-1,5.32-1.39l5.35-1.26c1.78-.45,3.6-.72,5.4-1.09s3.59-.72,5.4-1l5.46-.76,2.73-.36c.9-.12,1.82-.17,2.74-.26l5.48-.46c1.83-.2,3.67-.17,5.5-.25l5.51-.15c1.83,0,3.67.13,5.5.19l2.75.12c.92,0,1.83.05,2.75.18l5.47.59a52.65,52.65,0,0,1,5.44.74l5.4,1c.9.18,1.81.33,2.69.53l2.65.63c3.53.86,7.05,1.76,10.53,2.79s6.93,2.14,10.35,3.34S853.94,561.42,857.27,562.84Z" transform="translate(-559.72 -324.72)"/><path d="M647.21,440.2q-4.28-12.13-8.43-24.3l-8.26-24.34c-2.73-8.12-5.48-16.24-8.15-24.38l-8-24.41-.89-2.7,2.84-.68c9-2.18,18-3.95,27.12-5.62s18.17-3.16,27.32-4.36a514.28,514.28,0,0,1,55.23-4.6c18.5-.38,37.14.32,55.61,3.4a157.59,157.59,0,0,1,27.29,7.08,92.54,92.54,0,0,1,25.23,13.52l-2.36-.81h1.37l1,.82a62.86,62.86,0,0,1,12.07,12.51,56,56,0,0,1,4.56,7.48c.66,1.29,1.29,2.66,1.83,3.95l1.6,3.83c4.17,10.26,7.89,20.67,11.06,31.24l.16.53v.49l-.16-1c3.75,12.35,6.93,24.83,9.67,37.39q2,9.45,3.69,18.93c1.12,6.33,2.16,12.64,3.08,19.05l0,.17v.15l-.1-.62a4.21,4.21,0,0,1,.12.48l0,.25c0,.09,0,.17,0,.17l0-.32,3,24.16v0l1.51,17.16v0c.27,4.06.54,8.15.76,12.23l.4,12.25-1.28-12.18-1.56-12.14v0l-2.5-17v0l-4.15-23.88,0-.18v-.14c0-.05,0,0,0,0v.1a.78.78,0,0,0,0,.21l-.1-.62v0l0,.29c-1.17-6.22-2.44-12.5-3.8-18.72s-2.82-12.44-4.38-18.6c-3.08-12.36-6.56-24.6-10.6-36.64l-.14-.44v-.59l.15,1c-3.46-10.29-7.17-20.5-11.45-30.44L846,375.66c-.54-1.23-1.07-2.33-1.68-3.47a48.84,48.84,0,0,0-4.09-6.46,58.45,58.45,0,0,0-10.83-10.89l2.39.83h-1.34l-1-.81a84.81,84.81,0,0,0-23.19-12.21,149.72,149.72,0,0,0-26-6.58c-17.74-3-36-3.85-54.12-3.57a541.54,541.54,0,0,0-54.52,3.69c-18.12,2.09-36.27,4.78-54.09,8.39l1.94-3.38,7.1,24.7,7,24.73L637,403l3.42,12.4Z" transform="translate(-559.72 -324.72)"/><path d="M866.87,566.62a100.54,100.54,0,0,1,24.77,13.08l.42.31,0,.62v0l-.45-.93a58,58,0,0,1,6.18,5.27c.84.83,1.92,1.72,2.89,2.59l1.49,1.31.75.67.38.34c.14.13.24.22.46.45l-.38-.33a24.46,24.46,0,0,0,2.6,1.33c.44.19.89.38,1.3.51l.26.08h-.15a1.51,1.51,0,0,0-.33,0,1,1,0,0,0-.21.07,1.81,1.81,0,0,0-.48.29,2.19,2.19,0,0,0-.38.45,1.83,1.83,0,0,0-.23.68,1.64,1.64,0,0,0,0,.44,1.08,1.08,0,0,0,.07.31l0,.15,0,.05,0,.09.09.15c.13.17,0,.07,0,0l-11.75-6.3,13.49,3.07a32.76,32.76,0,0,0,5.83.87,14.15,14.15,0,0,0,5.43-.78c.92-.3,1.88-.68,2.89-1,.55-.2.95-.34,1.36-.51s.81-.38,1.2-.59a16.66,16.66,0,0,0,2.28-1.51c.75-.58,1.32-1.17,2.29-2l.62-.54,1,0h0l-1.61.57a68.82,68.82,0,0,1,8.92-6.13c3-1.82,6.1-3.52,9.17-5.18,6.16-3.32,12.39-6.47,18.64-9.53,12.54-6.06,25.2-11.82,37.88-17.5s25.5-11,38.3-16.44,25.67-10.58,38.56-15.77l9.68-3.87,9.71-3.8c6.5-2.57,12.84-5,19.37-7.52s13-5,19.49-7.39l4.88-1.82,2.47-.91a18.57,18.57,0,0,1,2.94-.82l.74-.13.65-.1,1.29-.21,2.58-.4,5.15-.76c27.49-3.9,55-7.7,82.59-10.88-27.15,5.9-54.4,11.17-81.66,16.35l-5.11.95-5,1a15.1,15.1,0,0,0-2,.65l-2.37,1-4.8,2q-9.59,4-19.21,7.95c-6.38,2.6-12.91,5.3-19.26,8l-9.59,4-9.6,3.93c-12.83,5.25-25.61,10.64-38.41,16s-25.59,10.65-38.32,16.12-25.48,10.85-38.07,16.57c-6.31,2.81-12.58,5.7-18.75,8.74-3.09,1.52-6.14,3.08-9.13,4.72a74.66,74.66,0,0,0-8.48,5.24l-.79.6-.82,0h0l1.6-.57c-.65.5-1.6,1.35-2.55,2a21.68,21.68,0,0,1-3.05,1.81c-.54.26-1.09.49-1.66.7s-1.16.39-1.61.52c-1,.3-2,.63-3.08.93a18.67,18.67,0,0,1-7,.65,33.52,33.52,0,0,1-6.52-1.36l1.74-3.22a3.68,3.68,0,0,1,.55.61,2.21,2.21,0,0,1,.14.24l.07.13,0,.07.06.17a2.29,2.29,0,0,1,.07.36,1.5,1.5,0,0,1,0,.49,1.82,1.82,0,0,1-.25.72,2,2,0,0,1-.41.49,2.35,2.35,0,0,1-.52.32l-.25.08a3,3,0,0,1-.43.07,1.52,1.52,0,0,1-.4,0,4.08,4.08,0,0,1-.71-.16l-.48-.17c-.57-.23-1.07-.47-1.57-.72a27.76,27.76,0,0,1-2.89-1.67l-.2-.13-.18-.2-.24-.25-.34-.35-.69-.7-1.4-1.4c-.94-1-1.86-1.8-2.84-2.9a61.76,61.76,0,0,0-5.55-5.41l-.47-.41,0-.53v0l.44.93A88,88,0,0,0,879,573.4,135.66,135.66,0,0,0,866.87,566.62Z" transform="translate(-559.72 -324.72)"/><path d="M635.12,403.41a224.67,224.67,0,0,1,27.32-12c9.37-3.4,18.9-6.41,28.59-8.89a271.94,271.94,0,0,1,59.42-8.54c5,0,10.07-.12,15.1.15l3.77.16c1.26.06,2.51.2,3.77.29,2.51.24,5,.38,7.53.7l7.49,1c2.5.33,5,.9,7.44,1.35l3.71.72,3.68.91,3.66.94c1.22.31,2.45.6,3.64,1a156.38,156.38,0,0,1,28,11.29l6.54,3.72c1.1.59,2.14,1.3,3.18,2l3.12,2.1,3.09,2.11c1,.7,2,1.52,3,2.29,1.94,1.57,3.89,3.11,5.8,4.7-2.18-1.21-4.32-2.47-6.46-3.7-1.08-.61-2.1-1.29-3.21-1.84l-3.31-1.65-3.3-1.67a36.12,36.12,0,0,0-3.32-1.59L836.54,396c-1.11-.51-2.27-.91-3.42-1.34l-3.44-1.27-3.43-1.26-3.51-1.06-3.49-1.06c-1.17-.34-2.31-.76-3.51-1l-7.09-1.76a222.49,222.49,0,0,0-28.8-4.49c-2.43-.22-4.86-.33-7.28-.51-1.22-.07-2.43-.18-3.65-.21l-3.65-.09c-4.86-.22-9.74-.1-14.61-.05a360.55,360.55,0,0,0-58.26,6.67c-9.64,1.88-19.26,4-28.79,6.51S644.56,400.31,635.12,403.41Z" transform="translate(-559.72 -324.72)"/><path d="M1306.17,570.59l-2-8.71v0a360.33,360.33,0,0,0-17.34-52.8c-1.74-4.27-3.77-8.43-5.7-12.62s-4-8.29-6.2-12.34a206.61,206.61,0,0,0-14.49-23.38,169.31,169.31,0,0,0-17.59-20.87,122.92,122.92,0,0,0-21.09-16.93c-2-1.24-3.82-2.42-5.77-3.48s-4-2.11-6-3.08a105.53,105.53,0,0,0-12.47-5,107.79,107.79,0,0,0-26.38-4.91,128,128,0,0,0-27,1.25c-4.47.67-8.93,1.55-13.36,2.61-2.21.54-4.39,1.11-6.6,1.74s-4.39,1.24-6.56,1.93A222,222,0,0,0,1092,423.9c-4.18,1.89-8.3,3.93-12.41,6s-8.26,4.32-12.42,6.35l-12.5,6.24c-4.18,2.08-8.3,4.15-12.56,6.19s-8.44,4-12.68,5.93-8.52,3.81-12.79,5.68c-2.15.92-4.26,1.9-6.43,2.77l-6.49,2.62-13,5.21c-4.34,1.69-8.73,3.29-13.12,4.83s-8.84,3-13.29,4.36q6.48-2.62,12.85-5.46c4.26-1.87,8.51-3.74,12.72-5.73l12.58-6,6.3-3c2.1-1,4.15-2.08,6.22-3.11,4.14-2.11,8.32-4.12,12.44-6.26s8.27-4.28,12.33-6.46l24.51-13.27c4.13-2.19,8.07-4.49,12.22-6.76s8.32-4.4,12.56-6.44a229.82,229.82,0,0,1,26.23-10.75A165.72,165.72,0,0,1,1143,400a134.53,134.53,0,0,1,28.66-1.51,111.1,111.1,0,0,1,28.33,5.42,109.44,109.44,0,0,1,13.39,5.44c2.19,1.08,4.22,2.13,6.39,3.33s4.2,2.51,6.16,3.76c16.13,10.62,29.3,24.87,39.83,40.57a213.5,213.5,0,0,1,14.12,24.52c2.07,4.23,4,8.5,5.77,12.86s3.63,8.66,5.2,13.08a300.27,300.27,0,0,1,14.1,54.2v0Z" transform="translate(-559.72 -324.72)"/><path d="M957.48,482.45c-6.35,2.53-12.79,4.87-19.36,6.89-1.62.54-3.28,1-4.94,1.43s-3.32.91-5,1.33c-3.37.73-6.72,1.58-10.16,2.09a79.92,79.92,0,0,1-21,1.05,40.16,40.16,0,0,1-5.38-.87,33.24,33.24,0,0,1-5.32-1.78c-.43-.2-.88-.35-1.3-.59l-1.27-.71a17.91,17.91,0,0,1-2.46-1.65,8.69,8.69,0,0,1-1.15-1c-.37-.35-.74-.68-1.1-1.05l-1-1.21-.26-.31-.16-.23-.33-.46-.6-.84,0-1v0l.47,1.63a15.54,15.54,0,0,1-1.45-2.81,14.83,14.83,0,0,1-.52-1.55c-.07-.27-.13-.55-.19-.84l-.08-.45c0-.18,0-.27-.06-.6l.81,2-4.25-4.24c-1.39-1.44-2.88-2.82-4.36-4.15q-4.49-4-9.34-7.53a131.3,131.3,0,0,0-20.62-12.19A149.7,149.7,0,0,0,790.9,440c-4-.49-8-.83-12-1.05s-8.08-.22-12.13-.33a238.08,238.08,0,0,0-24.29,1.27c-8.1.77-16.18,1.93-24.21,3.41l-6,1.15-3.05.61-3,.69-6,1.38-3,.69-1.5.35-.75.17-.34.08,0,0-.35.14L684,451.26c-3.43.87-6.8,1.92-10.18,2.95s-6.74,2.13-10.08,3.28-6.7,2.3-10,3.6c3.1-1.74,6.32-3.23,9.53-4.76s6.49-2.91,9.77-4.28,6.61-2.66,10-3.83l10.08-3.58-.35.13.71-.26.4-.12.75-.22,1.49-.45,3-.89,6-1.79,3-.89,3-.8c2-.52,4-1,6.05-1.5,8.09-1.89,16.28-3.45,24.55-4.62a242.28,242.28,0,0,1,25-2h6.28c2.1,0,4.18-.05,6.3.06,4.19.17,8.39.46,12.59.92a146.87,146.87,0,0,1,48.62,13.61,118.32,118.32,0,0,1,11.14,6.15c3.6,2.27,7.07,4.66,10.44,7.25a125,125,0,0,1,9.68,8.25c3.11,2.86,5.87,6.07,8.75,9.17l.82,2c0-.12,0,0,0,0l0,.18c0,.13,0,.27.07.41a7.26,7.26,0,0,0,.25.88,9.55,9.55,0,0,0,.8,1.76l.48.84,0,.8v0l-.62-1.87.4.61.19.29.15.19.59.77c.23.26.49.5.72.75a5.79,5.79,0,0,0,.77.71,13.23,13.23,0,0,0,1.74,1.28l.94.59c.31.2.67.33,1,.5a31.26,31.26,0,0,0,9,2.7,76.67,76.67,0,0,0,19.81.25c3.36-.23,6.69-.79,10-1.24,1.67-.28,3.34-.61,5-.91s3.34-.58,5-1c3.32-.74,6.67-1.38,10-2.26S954.17,483.32,957.48,482.45Z" transform="translate(-559.72 -324.72)"/><path d="M672,522.51c8-3.9,16.13-7.41,24.42-10.59s16.7-6.1,25.23-8.64A298.31,298.31,0,0,1,774,492.2a203.88,203.88,0,0,1,26.86-1.43c4.5,0,9,.25,13.5.66s9,1,13.45,1.76c17.82,3.09,35.36,9.94,50,21.17.93.66,1.79,1.43,2.69,2.15s1.79,1.44,2.64,2.22l4.93,4.42a81.5,81.5,0,0,0,10.15,7.56A69.67,69.67,0,0,0,921.47,540a80.79,80.79,0,0,0,25.23.86,119.54,119.54,0,0,0,25-5.77c16.35-5.58,31.77-14,46.34-23.64,7.29-4.82,14.37-10,21.23-15.44,3.42-2.74,6.8-5.53,10.1-8.4s6.58-5.84,9.64-8.81l.22-.22.13-.1c3-2.17,6-4.05,9-5.93s6.09-3.63,9.2-5.33q9.33-5.1,19.06-9.34a209.76,209.76,0,0,1,19.84-7.49c3.36-1.11,6.76-2.06,10.16-3s6.85-1.75,10.32-2.45a168.17,168.17,0,0,1,20.94-3.14,158.61,158.61,0,0,1,21.13-.54,146.18,146.18,0,0,1,41.26,7.67l-5.09-1.24-2.54-.61c-.86-.18-1.72-.33-2.58-.49l-5.13-.95-5.18-.69-2.58-.36-2.6-.22-5.2-.43c-3.47-.08-6.93-.33-10.4-.2a157.63,157.63,0,0,0-20.72,1.46,182.61,182.61,0,0,0-20.35,3.91,213.94,213.94,0,0,0-39,13.95q-9.39,4.37-18.34,9.57-4.47,2.6-8.8,5.4c-2.86,1.87-5.76,3.84-8.37,5.82l.36-.31c-3.24,3.27-6.48,6.28-9.83,9.29s-6.75,5.9-10.21,8.74q-10.39,8.53-21.51,16.16a235.65,235.65,0,0,1-23.11,13.93,180.14,180.14,0,0,1-24.87,10.9,122.47,122.47,0,0,1-26.67,6.23,88.5,88.5,0,0,1-27.68-1.1,77.46,77.46,0,0,1-25.81-10.4A84.77,84.77,0,0,1,883,528.85l-4.9-4.52c-.77-.74-1.59-1.42-2.41-2.1s-1.61-1.4-2.47-2a98.29,98.29,0,0,0-22-13,106.74,106.74,0,0,0-12.11-4.42,128.2,128.2,0,0,0-12.56-3.17c-17-3.45-34.64-3.71-52.11-2.35-8.75.69-17.47,1.86-26.14,3.39S731,504,722.46,506.14s-17.06,4.61-25.47,7.33S680.2,519.1,672,522.51Z" transform="translate(-559.72 -324.72)"/><path d="M1155.28,370.32c-7.92,1.23-15.6,2.32-23.2,3.74s-15.07,3-22.56,4.84-14.93,3.83-22.43,5.88l-11.33,3.06c-3.82,1-7.62,2-11.59,2.75A119.39,119.39,0,0,1,1085,378.87a133.78,133.78,0,0,1,22.65-7.72,116.45,116.45,0,0,1,23.8-3.32A83.21,83.21,0,0,1,1155.28,370.32Z" transform="translate(-559.72 -324.72)"/><path d="M1062.14,391.5l-45,25.9c-15,8.54-30.25,16.92-46.1,24.22-7.94,3.62-16,7-24.3,9.89-2.07.74-4.18,1.36-6.26,2.05l-3.14,1c-1,.33-2.12.58-3.18.88l-6.37,1.7-6.46,1.36a51.57,51.57,0,0,1-6.67,1.09c-1.14.11-2.28.21-3.42.23-.57,0-1.13,0-1.7,0l-1.7-.05a62.88,62.88,0,0,1-13.31-1.95A69.88,69.88,0,0,1,871,446.39,85.67,85.67,0,0,0,895.34,454a58.63,58.63,0,0,0,12.46.55l1.54-.1,1.53-.18c1-.09,2-.26,3-.44a57.43,57.43,0,0,0,6-1.46l6.13-1.72,6.07-2c1-.34,2-.63,3-1l3-1.09c2-.75,4-1.42,6-2.21,4-1.6,7.94-3.1,11.84-4.85s7.84-3.42,11.74-5.19c15.57-7.15,30.93-15,46.52-22.5S1045.68,397.09,1062.14,391.5Z" transform="translate(-559.72 -324.72)"/><path d="M1009.62,599q19.36-10.54,39.1-20.4t39.73-19.18q10-4.65,20.09-9.14t20.28-8.75c13.58-5.69,27.26-11.16,41.14-16.17s27.93-9.58,42.27-13.36c7.17-1.87,14.42-3.55,21.78-4.83a136,136,0,0,1,22.47-2.21,68.79,68.79,0,0,1,11.57.84,37.63,37.63,0,0,1,11.53,3.72,62.65,62.65,0,0,1,18.35,14.31,46,46,0,0,1,10.34,21.34,48.69,48.69,0,0,1,.72,11.92,49.33,49.33,0,0,1-.73,5.92c-.18,1-.38,2-.63,2.94-.13.49-.26,1-.41,1.47s-.28.94-.51,1.59l-.16.43-.3.43-36.73,52.08-1.14,1.62c-.32.48-.65,1-.94,1.45a23.56,23.56,0,0,0-1.56,3,22.07,22.07,0,0,0-1.7,6.5,18.75,18.75,0,0,0,.46,6.52,11.57,11.57,0,0,0,2.66,5.19,7.4,7.4,0,0,0,4.64,2.16,17.16,17.16,0,0,0,6.34-.77,52,52,0,0,0,13.19-6.56c2.1-1.37,4.3-2.93,6.44-4.43l6.44-4.62c4.28-3.1,8.55-6.25,12.81-9.4l25.52-19,51-38.22c34.1-25.37,68.3-50.63,103.17-75,17.41-12.2,35.05-24.11,53-35.52,9-5.66,18.11-11.18,27.46-16.28,4.68-2.55,9.44-5,14.34-7.05a62.44,62.44,0,0,1,7.52-2.72,22.67,22.67,0,0,1,3.92-.78,6.52,6.52,0,0,1,3.9.59,6.44,6.44,0,0,0-3.88-.41,22.41,22.41,0,0,0-3.84.94,61.46,61.46,0,0,0-7.33,3c-4.77,2.28-9.38,4.92-13.94,7.61-9.12,5.41-18,11.26-26.75,17.22-17.57,11.88-34.72,24.41-51.84,37-34.16,25.21-67.91,51-101.61,76.86l-50.61,38.74q-12.66,9.7-25.44,19.24-6.39,4.77-12.85,9.5l-6.49,4.69c-2.2,1.55-4.33,3.08-6.67,4.62a58.88,58.88,0,0,1-15.25,7.57,24.58,24.58,0,0,1-9.39,1.07,16.15,16.15,0,0,1-5.07-1.37,14.9,14.9,0,0,1-4.41-3.1,19.26,19.26,0,0,1-4.69-8.75,26.75,26.75,0,0,1-.71-9.29,31.06,31.06,0,0,1,4.42-12.88c.38-.65.81-1.27,1.24-1.89l1.15-1.63,36.91-52-.45.85c.08-.21.23-.67.33-1s.23-.78.33-1.18c.2-.8.38-1.62.54-2.44a44.24,44.24,0,0,0,.63-5,41.55,41.55,0,0,0-.56-10,38.43,38.43,0,0,0-8.49-18,55.32,55.32,0,0,0-16.1-12.78,30.39,30.39,0,0,0-9.33-3.07,61.27,61.27,0,0,0-10.38-.86,132.41,132.41,0,0,0-21.37,1.87c-7.14,1.12-14.25,2.63-21.32,4.35-14.15,3.46-28.13,7.78-42,12.48-27.75,9.36-55,20.36-82,31.84S1036.07,586.17,1009.62,599Z" transform="translate(-559.72 -324.72)"/><path d="M1272.39,510.15a12.19,12.19,0,0,1,3.43,4.32,13.51,13.51,0,0,1,1.11,5.63,27.35,27.35,0,0,1-2.92,11c-3.29,6.77-7.77,12.7-12.45,18.31s-9.73,10.84-14.69,16c-2.46,2.59-4.95,5.15-7.24,7.75-1.15,1.3-2.27,2.59-3.23,3.88-.47.64-.91,1.28-1.26,1.87l-.24.42-.18.38-.43,1.1a30.59,30.59,0,0,0-1.09,18.77c1.48,6.43,4.5,12.69,8.07,18.66,7.2,12,16.8,22.78,26,34-11.49-8.78-22.46-18.46-31.23-30.5a64.24,64.24,0,0,1-10.18-20.26,40.55,40.55,0,0,1-1.46-11.78,35.34,35.34,0,0,1,2.49-11.82l.57-1.41.41-.83.43-.75a27.92,27.92,0,0,1,1.78-2.59c1.21-1.58,2.45-3,3.72-4.38,2.55-2.73,5.12-5.29,7.72-7.8,5.2-5,10.42-9.89,15.43-14.92,2.5-2.52,4.93-5.08,7.26-7.71a70,70,0,0,0,6.4-8.27,26.16,26.16,0,0,0,4.14-9.27,12,12,0,0,0,0-5A12.57,12.57,0,0,0,1272.39,510.15Z" transform="translate(-559.72 -324.72)"/><path d="M1257.51,569.79a219,219,0,0,1-12.31,19.78l21.9,9.23a96.23,96.23,0,0,0,3.77-24.19l-.43-3.19a9,9,0,0,0-2.14-4.07,11.5,11.5,0,0,0-6.23-4.3c-5.13-1.16-10.85.75-13.53,5.51a49.47,49.47,0,0,1-3.91,5.94l1.88-2.43a49,49,0,0,1-8.24,8.3l2.43-1.87a5.24,5.24,0,0,1-1.09.65l2.87-1.21-.41.09,3.18-.43-.38,0,3.19.43-.37-.11,2.86,1.21a5.84,5.84,0,0,1-1-.61l2.42,1.87a15.18,15.18,0,0,1-2.19-2.2l1.87,2.42a16,16,0,0,1-1.79-3l1.21,2.86a15,15,0,0,1-1-3.36l-21.9,9.23c.12.25.24.49.35.75l-1.21-2.87a20.85,20.85,0,0,1,1.32,5.09l-.43-3.19c.36,2.89.35,5.79.58,8.69a56.78,56.78,0,0,0,.92,6.86,30.89,30.89,0,0,0,2.32,6.43c2,4.56,5.71,8.15,7.73,12.72l-1.21-2.86a13.78,13.78,0,0,1,1,3.27l-.42-3.19a14.52,14.52,0,0,1,.11,1.74,12.36,12.36,0,0,0,3.5,8.47,12.2,12.2,0,0,0,8.48,3.51c6.5-.29,12-5.26,12-12a27.25,27.25,0,0,0-4.83-14.89c-1.95-3-4.23-5.75-5.66-9l1.21,2.86a20.84,20.84,0,0,1-1.32-5l.43,3.18c-.39-3-.37-5.93-.61-8.9a51.76,51.76,0,0,0-1-7,30.37,30.37,0,0,0-2.52-6.69,12,12,0,0,0-7.16-5.5,12.42,12.42,0,0,0-7.8.6,11.45,11.45,0,0,0-5.73,4.9l-1.21,2.86a12.08,12.08,0,0,0,0,6.37c.75,4.6,3.29,8.8,6.34,12.24a18.51,18.51,0,0,0,8,5.3,13.47,13.47,0,0,0,10.39-1.16,25.66,25.66,0,0,0,4-2.92,56.41,56.41,0,0,0,13.53-16.27l-22.32-6c-.08,2.84-.31,5.68-.67,8.5l.43-3.18a86.22,86.22,0,0,1-2.67,12.51,12,12,0,0,0,6.93,14.13,11.52,11.52,0,0,0,7.8.6,13.45,13.45,0,0,0,7.16-5.5,222.85,222.85,0,0,0,12.31-19.79,12.53,12.53,0,0,0,1.2-9.23,12,12,0,0,0-21.89-2.86Z" transform="translate(-559.72 -324.72)"/><path d="M1266,620.56a63.43,63.43,0,0,1,8.33-13.63l-1.88,2.42c7-9,15.31-17.19,21.1-27.13a73.86,73.86,0,0,0,7.52-18.82c.74-2.92,1.31-5.88,1.77-8.85a75.56,75.56,0,0,0,1.27-12.18c-.11-9.58-4.13-19.39-12.79-24.29a12.53,12.53,0,0,0-9.23-1.21,12.25,12.25,0,0,0-7.16,5.51,12.12,12.12,0,0,0-1.21,9.23,12.39,12.39,0,0,0,5.51,7.16,12.63,12.63,0,0,1,1.55,1l-2.42-1.87a13.9,13.9,0,0,1,2.07,2.13l-1.88-2.42a16,16,0,0,1,1.86,3.27l-1.21-2.86a19.8,19.8,0,0,1,1.14,4.27l-.43-3.19a37.18,37.18,0,0,1-.25,9.77l.43-3.19a83.33,83.33,0,0,1-5.28,20.92l1.21-2.86a66.21,66.21,0,0,1-8.81,14.61l1.87-2.42c-8.19,10.55-18.41,20.06-23.77,32.51a9,9,0,0,0-1.42,4.45,9.15,9.15,0,0,0,.22,4.78,12.19,12.19,0,0,0,5.5,7.16,12.07,12.07,0,0,0,9.23,1.2c2.76-.89,6-2.71,7.16-5.5Z" transform="translate(-559.72 -324.72)"/><path d="M1272.29,526.34a132.6,132.6,0,0,1-4.79,14.39l1.2-2.86a51.66,51.66,0,0,1-6.44,11.22l1.87-2.43c-6.51,8.36-15.23,14.6-22.18,22.55l18.81,14.52.72-1-1.87,2.43c4.15-5.33,9.31-9.71,14.38-14.13a94.82,94.82,0,0,0,15.57-16.58l1.21-2.87.42-3.18A12.14,12.14,0,0,0,1276,536.89a36.15,36.15,0,0,0-21.42,16.88,12.48,12.48,0,0,0-1.2,9.23,12.19,12.19,0,0,0,5.5,7.16,12.07,12.07,0,0,0,9.23,1.2,12.23,12.23,0,0,0,7.16-5.5,25.08,25.08,0,0,1,2.1-3.19l-1.87,2.43a25,25,0,0,1,4-4.05l-2.42,1.88a24.66,24.66,0,0,1,5.59-3.27l-2.87,1.2c.83-.33,1.67-.62,2.53-.87l-13.53-17.6c-.38.55-.77,1.08-1.18,1.61l1.88-2.42c-4,5.23-9.07,9.55-14,13.87-2.47,2.15-4.93,4.3-7.27,6.6a79.73,79.73,0,0,0-8.19,9.59c-1.66,2.25-2,6.65-1.2,9.23a12.37,12.37,0,0,0,4.29,6.22,11.4,11.4,0,0,0,7.26,2.57c3-.13,6.39-1.12,8.47-3.5,5-5.76,11-10.59,16.34-16a83.38,83.38,0,0,0,9-10.8,64.69,64.69,0,0,0,6.74-13.3,135.53,135.53,0,0,0,4.37-13.37A12,12,0,0,0,1287,518a12.12,12.12,0,0,0-9.24,1.21,12.57,12.57,0,0,0-5.5,7.16Z" transform="translate(-559.72 -324.72)"/><path d="M1253.43,618.56A30.85,30.85,0,0,0,1252.3,638l5-2.91a17.87,17.87,0,0,1-4.47-5.45,3,3,0,1,0-5.17,3,24.67,24.67,0,0,0,5.4,6.67,3,3,0,0,0,5-2.92c-.19-.71-.36-1.42-.49-2.14-.08-.42-.16-.83-.21-1.24.07.5,0-.41,0-.46a28.09,28.09,0,0,1-.07-4.4c0-.31,0-.62.08-.94s0-.41.07-.62c-.05.27,0,.23,0-.14q.16-1.1.42-2.16a26.92,26.92,0,0,1,1.35-4.19,3,3,0,0,0-2.1-3.68,3.08,3.08,0,0,0-3.68,2.09Z" transform="translate(-559.72 -324.72)"/><path d="M1249.42,636.12a39.35,39.35,0,0,1,6.31,7.55,81.75,81.75,0,0,0,4.45,7,13.8,13.8,0,0,0,7.3,5.2c3.51.93,7.17.24,10.64-.5a3,3,0,0,0,2.09-3.68,3.06,3.06,0,0,0-3.68-2.1c-2.63.56-5.68,1.31-8.28.25a9.9,9.9,0,0,1-4.27-4.11c-1.41-2.16-2.58-4.48-4.06-6.6a47.32,47.32,0,0,0-6.27-7.29c-2.79-2.66-7,1.57-4.23,4.24Z" transform="translate(-559.72 -324.72)"/><path d="M1283.11,525.5a25.49,25.49,0,0,1-1.14-4.79l.11.8a25.31,25.31,0,0,1-.16-4.92,3,3,0,0,0-3-3,3.07,3.07,0,0,0-3,3,27.33,27.33,0,0,0,1.4,10.5,3,3,0,0,0,5.78-1.59Z" transform="translate(-559.72 -324.72)"/><path d="M1272.27,514.16a2.08,2.08,0,0,1,1.79.81,4.3,4.3,0,0,1,1,2.24c.44,2.76-.59,5.8-1.18,8.46-1.2,5.42-2.61,10.83-5.49,15.63-2,3.31,3.19,6.32,5.17,3,3.61-6,5.21-12.87,6.66-19.65.77-3.62,1.49-7.46,0-11a8.62,8.62,0,0,0-7.94-5.5c-3.84.12-3.86,6.11,0,6Z" transform="translate(-559.72 -324.72)"/><path d="M1233.49,588.11a5,5,0,0,1-.39-1.26c.05.4,0-.7,0-.82-.05.25,0,.18,0-.19s.09-.45.15-.67c.11-.45.25-.89.39-1.33.6-1.82,1.32-3.57,1.77-5.44.24-1,.44-1.93.71-2.89.13-.48.28-1,.45-1.42s.18-.46.07-.17c.08-.18.17-.35.26-.53a4.61,4.61,0,0,1,1.13-1.49,2.19,2.19,0,0,1,1.16-.59,3,3,0,1,0-1.59-5.77c-4.92,1.24-6.75,6.12-7.79,10.55s-4,9.12-2.17,13.62a3.11,3.11,0,0,0,3.69,2.09c1.41-.39,2.71-2.18,2.09-3.69Z" transform="translate(-559.72 -324.72)"/><path d="M1234.48,576a1.57,1.57,0,0,1-.18-.31l.3.72a1.59,1.59,0,0,1-.12-.41l.1.79a2.18,2.18,0,0,1,0-.51l-.11.79a3.2,3.2,0,0,1,.19-.69l-.3.71a4.24,4.24,0,0,1,.49-.82l-.46.6a5,5,0,0,1,.82-.83l-.61.47c.81-.62,1.67-1.16,2.47-1.8a6.48,6.48,0,0,0,2-3A3,3,0,0,0,1237,568a3.1,3.1,0,0,0-2.31.3,3.31,3.31,0,0,0-1.37,1.79,1.34,1.34,0,0,1-.07.18l.3-.72a2.79,2.79,0,0,1-.41.71l.47-.61a5.22,5.22,0,0,1-.93.89l.61-.47c-.46.35-.94.66-1.41,1a10.79,10.79,0,0,0-1.2.94,8.53,8.53,0,0,0-1,1.22,4.33,4.33,0,0,0-.44.75,5.28,5.28,0,0,0-.5,3.6c0,.13.07.25.11.37a4.87,4.87,0,0,0,.49,1,3.15,3.15,0,0,0,1.79,1.37,3.06,3.06,0,0,0,2.31-.3,3,3,0,0,0,1.37-1.79,3,3,0,0,0-.3-2.31Z" transform="translate(-559.72 -324.72)"/><path d="M1234.49,575.18c0,.15-.08.79,0,.51s-.38.57,0-.09c.09-.14.18-.29.28-.43-.24.35,0,.07.11-.1.57-.63,1.2-1.21,1.82-1.78,1.35-1.27,2.76-2.48,4.2-3.64l.46-.36c.12-.1.53-.4.2-.16l1.06-.79c.74-.55,1.5-1.08,2.26-1.6,1.54-1,3.11-2,4.72-2.93a3,3,0,0,0-3-5.18A77.78,77.78,0,0,0,1236,566c-1.58,1.3-3.11,2.66-4.57,4.09-1.92,1.87-3.24,3.94-2.75,6.71a3,3,0,0,0,3.69,2.09,3.08,3.08,0,0,0,2.09-3.68Z" transform="translate(-559.72 -324.72)"/><path d="M1262.25,511.44c3,1.52,5.53,2.73,7.71,5.27a15.87,15.87,0,0,1,3.45,7.46c1.18,6.44-2.54,13.08-6,18.44a3,3,0,0,0,5.18,3c4.42-6.86,8.15-14.68,6.6-23a21.93,21.93,0,0,0-4.64-9.67,21.07,21.07,0,0,0-4.09-3.8,38.82,38.82,0,0,0-5.18-2.84,3.07,3.07,0,0,0-4.1,1.07,3,3,0,0,0,1.07,4.1Z" transform="translate(-559.72 -324.72)"/><path d="M1270.8,515.42a13.19,13.19,0,0,1,1.09,10.6,46.26,46.26,0,0,1-2.49,5.69l-3.2,6.68a3.07,3.07,0,0,0,1.07,4.1,3,3,0,0,0,4.1-1.07l3.52-7.36a41.46,41.46,0,0,0,3-7.33,19.3,19.3,0,0,0-2-14.34c-1.9-3.35-7.08-.34-5.17,3Z" transform="translate(-559.72 -324.72)"/><path d="M874,477.85a11.72,11.72,0,0,1,1.4.87c.42.31-.45-.43.21.19l.56.5a27.9,27.9,0,0,1,2.11,2.37l.2.25c.15.2.31.4.46.61l1.17,1.53c.72.92,1.44,1.84,2.24,2.69a28.23,28.23,0,0,0,12.26,7.54,3,3,0,0,0,3.69-2.09,3.08,3.08,0,0,0-2.1-3.69,22,22,0,0,1-10.27-6.72c-.33-.38-.65-.78-1-1.18l-.19-.24-.47-.62c-.71-.94-1.42-1.88-2.16-2.79a17.53,17.53,0,0,0-5.12-4.39,3.06,3.06,0,0,0-4.1,1.08,3,3,0,0,0,1.08,4.09Z" transform="translate(-559.72 -324.72)"/><path d="M869.42,473.76c1.77,2.79,3.5,5.61,5.36,8.34a28.15,28.15,0,0,0,6.77,7.29,3,3,0,0,0,4.1-1.08,3.07,3.07,0,0,0-1.08-4.09l-.39-.29c.52.38.05,0,0-.06s-.49-.42-.73-.64q-.78-.74-1.5-1.56-.36-.42-.69-.84c-.2-.24-.14-.17,0,0l-.3-.39q-.64-.89-1.26-1.8c-1.74-2.61-3.39-5.28-5.08-7.93a3,3,0,0,0-5.17,3Z" transform="translate(-559.72 -324.72)"/><path d="M962.08,544.82a31.49,31.49,0,0,0-5.25-12.54A44.66,44.66,0,0,0,945.38,521a62.21,62.21,0,0,0-17.71-8.38c-9.28-2.95-17.2-4.48-23.7-4.6s-11.64.65-15.45,2.34-6.6,3.94-8.2,6.76c0,0,0,.06-.06.09v0a13.64,13.64,0,0,0-1.91,7.07,11.72,11.72,0,0,0,.09,1.47,15.58,15.58,0,0,0,.94,3.73c.16.37.31.75.47,1.12a15.43,15.43,0,0,0,2.19,3.47c0,.07.13.13.19.19l0,0v0a15.64,15.64,0,0,0,7.54,5c3,.94,5.53,1,7.57,0,.15-.09.31-.16.47-.25a14.18,14.18,0,0,0,3-2c.28-.25.53-.5.78-.75a11.79,11.79,0,0,0,1-1.1,33.62,33.62,0,0,0,2.1-2.78c.68-1.06,1.37-2.16,2.06-3.35a56.26,56.26,0,0,1,4-6.19,16,16,0,0,1,4.79-4.19c1.78-1,4.07-1.1,6.76-.25a9.66,9.66,0,0,1,5.56,4,15.55,15.55,0,0,1,2.19,6.54,30,30,0,0,1-.25,8c-.18,1.07-.4,2.1-.65,3.16-.32,1.54-.69,3-1.13,4.51l-.41,1.31a3.19,3.19,0,0,1-1.72,1.91,10.1,10.1,0,0,1-4.38.87,93.45,93.45,0,0,1-12.76-.75q-4.26-.51-8.91-.93c-2.38-.22-4.82-.41-7.35-.6a73,73,0,0,0-9.1-.09,66.77,66.77,0,0,0-7.73.78,36.11,36.11,0,0,0-14.51,5.63c-4.29,2.85-7.38,7.38-9.32,13.54a35.69,35.69,0,0,0-1.1,4.63,30,30,0,0,0-.34,7.07,26.13,26.13,0,0,0,3.35,11.07,32,32,0,0,0,8.5,9.61,44.52,44.52,0,0,0,14.14,7,52.13,52.13,0,0,0,13.23,2.54,50.92,50.92,0,0,0,10.73-.6,34,34,0,0,0,7.63-2.31h0a6.2,6.2,0,0,0,.69-.28c.94-.44,1.81-.88,2.6-1.32h0a30.32,30.32,0,0,0,3.25-1.94c.16.53.31,1.07.5,1.57a19.69,19.69,0,0,0,.75,1.84A28.4,28.4,0,0,0,924.08,616a47.41,47.41,0,0,0,16.14,8.63,20.17,20.17,0,0,0,7.32,1.09,26.3,26.3,0,0,0,5-.94,11.4,11.4,0,0,0,3.75-2.53l-2.09-5.13a3.12,3.12,0,0,1-1.69.69,6.94,6.94,0,0,1-4.5.12,4.44,4.44,0,0,1-3-3.81c-.34-2,.19-5.29,1.6-9.79l6.75-21.58,8-25.59a7.36,7.36,0,0,0,.25-.87,8.68,8.68,0,0,0,.25-.91,26.85,26.85,0,0,0,.63-4.63v-.22A25.47,25.47,0,0,0,962.08,544.82ZM856.8,585a16.26,16.26,0,0,1-2.66-12.82c1.63-8.57,9.17-16.61,16.92-19.74-3.56,7.17-9.44,15.74-7.32,23.52a12.47,12.47,0,0,0,1.13,2.79Q859.29,582.83,856.8,585Zm31,5v0l0,0a10.3,10.3,0,0,1-.28-1.25,17.14,17.14,0,0,1,2.16-10.89,32.82,32.82,0,0,1,9.2-10.35,26.58,26.58,0,0,1,14.32-5.44,21.63,21.63,0,0,0,10.67-3.85l-9,27.9a42.86,42.86,0,0,1-6.32,5.94,23.25,23.25,0,0,1-6.69,3.63A11.92,11.92,0,0,1,895,596h0l-.94-.28s0,0-.06,0C890.67,594.68,888.64,592.8,887.8,590.08Z" transform="translate(-559.72 -324.72)"/><path d="M1147.84,379.27l-13.36,3.44-3-11.73-.31-1.22c-2.85-11.2-8-19.24-15.36-24.21a26.06,26.06,0,0,0-5.13-2.72,24.48,24.48,0,0,0-3.5-1.19,28.47,28.47,0,0,0-7.76-.94,15,15,0,0,0-1.63,0,42.09,42.09,0,0,0-8.57,1.35,38.81,38.81,0,0,0-7.91,2.91,12.27,12.27,0,0,0-1.53.78,39.81,39.81,0,0,0-7.1,4.72,0,0,0,0,0,0,0,36.25,36.25,0,0,0-3.23,2.91,41.08,41.08,0,0,0-8.19,11.17,40.19,40.19,0,0,0-4.35,17.36,34.26,34.26,0,0,0,1.53,11.26,41.18,41.18,0,0,0,2.85,7.07l-2.78.71a55.78,55.78,0,0,0-14,5.51,37.17,37.17,0,0,0-10.23,8.16,25.46,25.46,0,0,0-5.54,10.23,21.18,21.18,0,0,0-.56,8.67,26.33,26.33,0,0,0,.59,3.12c.1.28.16.57.25.82s.13.53.22.81c.22.81.5,1.53.75,2.28a29.43,29.43,0,0,0,5,8.76h0a13.15,13.15,0,0,0,1.13,1.25,36.28,36.28,0,0,0,11.72,7.95,58.14,58.14,0,0,0,13.61,3.81c4.72.72,9.07,1.28,13.11,1.72a66,66,0,0,1,10.13,1.88,6.91,6.91,0,0,1,.94.31h0a5.78,5.78,0,0,1,3.94,3.85c.38,1.44-.53,3.22-2.69,5.35s-5.72,3.81-10.79,5.1q-6.15,1.59-9.92-.19a23.87,23.87,0,0,1-2.18-1.19,27.69,27.69,0,0,1-4.57-3.16,58.32,58.32,0,0,0-6-4.47q-3-2-8.25-.66a5.78,5.78,0,0,0-4,3.16,8,8,0,0,0-.5,5.44,14.73,14.73,0,0,0,3.29,6.16,18,18,0,0,0,7.1,5c.09,0,.18.09.28.12a33.13,33.13,0,0,0,11.91,2.25,58.54,58.54,0,0,0,16.8-2.19,69.61,69.61,0,0,0,17.58-6.75,33.88,33.88,0,0,0,10.38-8.73,21.3,21.3,0,0,0,4.35-10,28.24,28.24,0,0,0-.59-10.66,1.42,1.42,0,0,0-.07-.22,21.49,21.49,0,0,0-7.16-11.64,37.21,37.21,0,0,0-12.07-6.47,81.23,81.23,0,0,0-14.39-3.1c-3.28-.37-6.41-.81-9.38-1.22h0c-1.16-.16-2.29-.34-3.38-.5-.44,0-.88-.12-1.32-.19-1.56-.22-3.06-.5-4.47-.81l-1.75-.38a36.78,36.78,0,0,1-4.85-1.47,12.58,12.58,0,0,1-2.06-.93,7,7,0,0,1-3.47-4.32c-.35-1.35.12-3.1,1.34-5.25s4.19-3.85,9-5.07c4.53-1.19,8.16-1.32,11-.38a28.4,28.4,0,0,1,9.1,5.63,10.94,10.94,0,0,0,2.78,1.75,11.88,11.88,0,0,0,2.1.82,14.16,14.16,0,0,0,6.94-.28,5.78,5.78,0,0,0,3.75-2.79,5,5,0,0,0,.47-1.15,7.58,7.58,0,0,0,.19-3.7,13.93,13.93,0,0,0-2.6-5.59,18.75,18.75,0,0,0-5.88-5.07c-6.94-3.75-11.51-8.38-13.79-13.89-.12-.31-.25-.62-.34-.94A27.62,27.62,0,0,1,1070,372.2a31,31,0,0,1,7.13-14.36,25.79,25.79,0,0,1,13.35-8.41q7.74-2,13.33.94a18.59,18.59,0,0,1,8.19,8.38,23.17,23.17,0,0,1,2.26,12.07,23.86,23.86,0,0,1-.38,3,22.72,22.72,0,0,1-4,9,.7.7,0,0,0-.35.32,3.08,3.08,0,0,1-.78.94,3.83,3.83,0,0,0-.81,1,41.86,41.86,0,0,1-6,4.73,25.88,25.88,0,0,1-7.47,3.19l-3.82,1,2.38,9.19,11.63-3a.39.39,0,0,1,.29-.62c3.19-.41,6.38-1,9.5-1.76,1.25-.28,2.47-.59,3.73-.9,5.88-1.5,11.76-3.16,17.73-4.23.38-.09.72-.15,1.1-.22l-.16-.56,1.81-.47s0-.09.07-.09a.36.36,0,0,1,.46-.06l11-2.82Zm-105.22,66.27c-.56,1-1.06,1.88-1.44,2.6a16.46,16.46,0,0,1-1.66-1,14.37,14.37,0,0,1-5.69-7.48,10.57,10.57,0,0,1-.59-2.34,6.24,6.24,0,0,1-.13-.85,20.29,20.29,0,0,1-.06-4.13,29,29,0,0,1,9-18.29c-.41,5-1.54,11-.78,16.17a14.54,14.54,0,0,0,1,3.91c.09.25.22.5.31.75A12.94,12.94,0,0,0,1044,437a11.36,11.36,0,0,0,2.62,2.37c-1.62,2.41-2.94,4.44-3.94,6.13ZM1063,393.06a16.16,16.16,0,0,1-.9-1.56c-4.22-8.45-1-21.43,3.69-26.68-.91,7-3,15.95.28,22-.75,1.44-1.41,2.69-1.94,3.79S1063.33,392.37,1063,393.06Z" transform="translate(-559.72 -324.72)"/><path d="M1331.91,456.65a39.37,39.37,0,0,0-2.44-10.89,38.57,38.57,0,0,0-8.82-13.23,46.73,46.73,0,0,0-15.39-9.72,45.85,45.85,0,0,0-17.7-3.66,38.11,38.11,0,0,0-15.46,3.41,37.5,37.5,0,0,0-9.32,6.13,32.36,32.36,0,0,0-2.84,2.78,1.3,1.3,0,0,0-.31.31,1.5,1.5,0,0,1-.26.25c-.53.6-1,1.16-1.47,1.79a44.76,44.76,0,0,0-6.22,10.32c-.25.5-.47,1-.69,1.56a44.3,44.3,0,0,0-3.38,16,40.42,40.42,0,0,0,2.66,15.35,36.63,36.63,0,0,0,8.82,13.23,45.1,45.1,0,0,0,15,9.57,51.17,51.17,0,0,0,12.79,3.48,35.27,35.27,0,0,0,5.38.37,37.26,37.26,0,0,0,15.54-3.38,36.57,36.57,0,0,0,12.29-9.32,49,49,0,0,0,8.48-13.95,47.36,47.36,0,0,0,3.29-13.35c.06-.75.12-1.5.15-2.29a1.28,1.28,0,0,0,0-.34,1.24,1.24,0,0,0,0-.47A34.92,34.92,0,0,0,1331.91,456.65Zm-38.44-32.53c-6.76,3.5-16,7.07-19,13.92-3.35.34-5.88.65-7.57,1C1270.42,428.62,1285.18,422.9,1293.47,424.12Zm16.14,23.52c0,1.28,0,2.56-.13,3.88a6.32,6.32,0,0,0-.06.75c-.06.75-.16,1.53-.25,2.28-.19,1.13-.38,2.25-.6,3.38a56.18,56.18,0,0,1-2.56,8.82,54,54,0,0,1-5.63,11.1,43.8,43.8,0,0,1-7.1,8.39,23.93,23.93,0,0,1-7.54,4.78,11.13,11.13,0,0,1-3.94.75,10.65,10.65,0,0,1-3.47-.4,11.68,11.68,0,0,1-6.57-6.6,27.53,27.53,0,0,1-2-10.26,44.43,44.43,0,0,1,.19-5,49.46,49.46,0,0,1,.84-6,51,51,0,0,1,2.6-9.11,46.47,46.47,0,0,1,5.57-10.82c.21-.31.43-.62.68-.94.44-.59.91-1.22,1.41-1.78.16-.22.35-.41.5-.59a30.88,30.88,0,0,1,2.72-2.85c.57-.53,1.13-1.06,1.72-1.53a21.08,21.08,0,0,1,7.73-4.13,11.92,11.92,0,0,1,7.32.06,11.7,11.7,0,0,1,6.6,6.29,23.58,23.58,0,0,1,1.94,9.54Z" transform="translate(-559.72 -324.72)"/><path d="M1034.08,493a26.45,26.45,0,0,1-.59,3,19.46,19.46,0,0,1-5,9.64,15.17,15.17,0,0,1-11,4.28,19.71,19.71,0,0,1-3.59-.31,25.33,25.33,0,0,1-7.67-2.72,30.79,30.79,0,0,1-10.1-9,38.52,38.52,0,0,1-6.35-14.3,62,62,0,0,0,14.51,1.91c9.11,0,16.71-2.12,22.84-6.44a20.61,20.61,0,0,0,9.19-17.86c0-7.51-3.19-13.07-9.51-16.77-.43-.25-.87-.5-1.31-.71q-10.83-5.49-25.65-5.48-15.29,0-25.71,6.13a39.43,39.43,0,0,0-15.51,15.95,44.67,44.67,0,0,0-4.57,14.3,42.65,42.65,0,0,0-.47,6.32q0,14.07,6.82,23.33a40,40,0,0,0,17.49,13.57,59.25,59.25,0,0,0,14.66,3.79,60.12,60.12,0,0,0,7.89.5,45.08,45.08,0,0,0,17.79-3.47,32,32,0,0,0,13.17-10.11,27.49,27.49,0,0,0,5.6-15.2.86.86,0,0,0,0-.28Zm-76.94-11.73a35.58,35.58,0,0,1,.34-7.85c2.38-15.2,14.08-32.06,31-31.18-.84,2.94-1.78,7.44-2.85,13.51-9.1.47-15.67,7.6-21.3,15.29C961.8,474.48,959.45,478.07,957.14,481.23Zm31.28-9.91a62.58,62.58,0,0,1,.75-10,43.06,43.06,0,0,1,3.53-11.89c2.88-6,6.82-9,11.86-9,2.09,0,3.65,1.15,4.69,3.41a20,20,0,0,1,1.53,8,6.78,6.78,0,0,1,0,.78c0,8.2-1.72,15-5.13,20.3s-7.88,8-13.42,8a24.57,24.57,0,0,1-3.09-.28A59.89,59.89,0,0,1,988.42,471.32Z" transform="translate(-559.72 -324.72)"/><path d="M1257.09,400.94a18.21,18.21,0,0,0-5.75-10.73c-4.13-3.75-10.14-5.59-18.11-5.59-5.6,0-10,1.43-13.14,4.37a31.2,31.2,0,0,0-7.35,10v-.75a17.85,17.85,0,0,1,1-6.72,18.37,18.37,0,0,1,2.13-4.1,8.12,8.12,0,0,1,3.19-2.78l-1.88-3.57a52.85,52.85,0,0,1-20.42,6q-10.89.94-21.33.94v3a9.37,9.37,0,0,1,6.06,2.44c1.91,1.63,2.88,4,2.88,7.26v48.1a18.18,18.18,0,0,1-1,6.79,11.62,11.62,0,0,1-2.5,4,8.92,8.92,0,0,1-3.54,2.44v3.72h42.48V462a10.89,10.89,0,0,1-3.54-2.44,13.2,13.2,0,0,1-2.31-4,20.43,20.43,0,0,1-1.22-6.79v-17a57.94,57.94,0,0,1,1.85-15.39c.18-.62.37-1.22.56-1.78.31-1,.65-2,1-3a21.82,21.82,0,0,1,.88-2.22c.09-.22.18-.47.31-.72a35,35,0,0,1,1.78-3.41,1.81,1.81,0,0,0,.16-.25,21.84,21.84,0,0,1,5.63-6.44,2.66,2.66,0,0,1,.69-.44l0,0a8.5,8.5,0,0,1,4.78-1.79c2.76,0,4.51,1,5.32,2.88.19.47.38,1,.56,1.44a24.63,24.63,0,0,1,4.07-2c-.85,1.72-2,3.6-2.88,5.51a6.5,6.5,0,0,1,.22.84,3.56,3.56,0,0,1,.16.53,18.66,18.66,0,0,0,1.15,3.13,5.6,5.6,0,0,0,.41.72,16.57,16.57,0,0,0,1.31,2.22,2.69,2.69,0,0,0,.22.28c1.41,1.94,4.07,2.88,7.92,2.88a7.34,7.34,0,0,0,6.31-3.07s.07-.09.1-.09a11.13,11.13,0,0,0,1.25-2.22,5.13,5.13,0,0,0,.28-.72,9.23,9.23,0,0,0,.63-3.41V405A27.73,27.73,0,0,0,1257.09,400.94Z" transform="translate(-559.72 -324.72)"/><path d="M1258.37,405a18.57,18.57,0,0,0-1.28-4.1,19.62,19.62,0,0,0-4.69-6.69,25,25,0,0,0-15.11-6.69c-.34.21-.72.4-1.06.65a46.08,46.08,0,0,0-8.79,7.73c-.63.72-1.22,1.44-1.78,2.19l0,0c-.35.44-.66.81-1,1.25.43-.19.84-.34,1.34-.56-1.12,2.25-1.88,3.56-2.41,4.91-.18.44-.34.87-.5,1.28a23.88,23.88,0,0,0-1.06,3.66,3.49,3.49,0,0,0-.16.72,11.62,11.62,0,0,0-.31,2.22,14.92,14.92,0,0,0,.94,7.19,16.28,16.28,0,0,0,1,2.16,18.39,18.39,0,0,0,13.61,8.63l0,0a18.61,18.61,0,0,0,9-1.07,20.28,20.28,0,0,0,12.48-16.95,18,18,0,0,0,.12-2.22v-.72A17.6,17.6,0,0,0,1258.37,405Zm-26.46,14.64c-3.59-2.32-4.88-5.16-4.53-8a9.61,9.61,0,0,1,.59-2.22c.06-.22.19-.47.28-.72a15,15,0,0,1,2.51-3.66,23,23,0,0,1,5.56-4.38,24.63,24.63,0,0,1,4.07-2c-.85,1.72-2,3.6-2.88,5.51-.12.28-.25.59-.34.84a13.86,13.86,0,0,0-1.13,3.66,6.35,6.35,0,0,0-.06.72,5.4,5.4,0,0,0,.25,2.22,6.5,6.5,0,0,0,2.44,3.47C1235.51,417.08,1233.29,418.61,1231.91,419.68Z" transform="translate(-559.72 -324.72)"/><path d="M1112.49,521.86a10.37,10.37,0,0,1-2.78,3.32,11.53,11.53,0,0,1-7.1,2.25,19.41,19.41,0,0,1-10.2-2.85,36.49,36.49,0,0,1-3.47-2.28,19.27,19.27,0,0,1-6.25-7.6,18.87,18.87,0,0,1-.88-2.5c-.06-.28-.12-.63-.19-.91a10.26,10.26,0,0,1-.12-1.34c-.06-.6-.1-1.19-.16-1.79a6.09,6.09,0,0,0,1.16-.75,6.51,6.51,0,0,0,2-2.78c.06-.22.16-.44.19-.63a.27.27,0,0,1,0-.15,13.81,13.81,0,0,1,2.91-2.29,6.77,6.77,0,0,1,.84-.44c-4.56,3.66-7.25,9.08-4.81,15a77,77,0,0,1,7.25-2.63c-1.47-5.16,1.88-9.41,5.54-13.2.62.13,1.25.28,1.88.47a22.59,22.59,0,0,1,13.91,11C1114,515,1114.47,518.36,1112.49,521.86Z" transform="translate(-559.72 -324.72)"/><path d="M874.15,505.09l.81,5.12-58.44,9.23-.81-5.12a12.19,12.19,0,0,0,4.36-4.09,17,17,0,0,0,2.58-6.07,25.43,25.43,0,0,0-.08-9.58L800.19,391,787.3,524.05l-18.2,2.88L710.81,402.21l.07.68-1.7,49.29L707,518.09l-.3-.58c-2.07-4.08-4.11-8.18-6.4-12.15l-6.45-61.48L690,407c.16-5.61.1-11.23-.26-16.84-.13-1.89-.29-3.81-.49-5.72.3-2.31.53-4.6.68-6.92.09-.95.15-1.9.17-2.88,0,0,0,0,0-.06s0,0,0-.07a0,0,0,0,0,0-.07c.09-1,.14-2,.16-2.94l0-.1c0-2.06,0-4.1-.14-6.17,0-1-.16-1.92-.28-2.87,0-.34-.07-.68-.09-1,3.3.63,6.56,1.29,9.77,2,6,1.41,11.93,2.7,17.79,3.75a52.86,52.86,0,0,0,18,.18L775.87,455l8.79-95.67,58.43-9.23.81,5.12a14.8,14.8,0,0,0-4.35,4.09,19.39,19.39,0,0,0-2.3,6.17,30,30,0,0,0-.16,9.71l24.45,113.28a28.89,28.89,0,0,0,3.14,9.1,19.42,19.42,0,0,0,4.06,5A15.27,15.27,0,0,0,874.15,505.09Z" transform="translate(-559.72 -324.72)"/><path d="M709.17,452.08v-.19l-.6-9.29-3.09-47.29c-2.22-3.75-4.41-7.5-6.45-11.35-.34-.63-.68-1.25-1-1.91a118.36,118.36,0,0,1-7.54-17.42c-.25-.69-.5-1.41-.68-2.1,0,0,0,0,0-.06v-.09c-.13-.44-.22-.88-.38-1.32L647,367.76a135.78,135.78,0,0,0-20.65,4.84,88.28,88.28,0,0,0-23.89,11.55q-17.13,12-23.65,28.18a61.09,61.09,0,0,0-3.85,33c1.79,11.44,6.14,20.8,13,28a52.15,52.15,0,0,0,24.4,14.8,66.85,66.85,0,0,0,28.53,1.69,57.09,57.09,0,0,0,19.67-6.76,47.4,47.4,0,0,0,10.29-8,31.32,31.32,0,0,0,9.29-24.27,40.2,40.2,0,0,0-.47-4.66,16.46,16.46,0,0,0-7.32-11.6c-4.13-2.76-9.35-3.66-15.67-2.66a18.06,18.06,0,0,0-10.32,5.31A16.54,16.54,0,0,0,645,438.6c-3.07,3.75-4.38,7.23-3.85,10.48,4.16-.13,7.38,1.06,9.63,3.6.13.15.29.31.41.46v0l0,0a16.49,16.49,0,0,1,3.57,7.38l.09.5a35.4,35.4,0,0,1,.41,5.29v0A19.63,19.63,0,0,1,653,475.7c-2.19,4-5.16,6.19-8.91,6.78-4.79.75-9.38-1.47-13.79-6.75s-7.54-13.61-9.36-25.06q-3.46-22,3.45-39.94a77.49,77.49,0,0,1,8.6-16.54,62.86,62.86,0,0,1,10.85-12.14q12.66-10.79,25.21-12.76c5.79-.91,10.79-.19,15,2.22a14.54,14.54,0,0,1,5.82,6v0a13.84,13.84,0,0,1,1.35,3.56c.06.25.12.5.18.72.13.44.22.94.32,1.41.09.72.18,1.44.22,2.19a26.31,26.31,0,0,1-.1,3.85l.53-.1a379.63,379.63,0,0,1,1.41,54.68c0,.9-.09,1.78-.12,2.69a379.1,379.1,0,0,1-5.26,45.57Q686,505.85,682.58,518c-1.72,6.32-3.66,12.36-5.78,18a151.84,151.84,0,0,1-19,36.47,91.48,91.48,0,0,1-23,22.52q-12.81,8.6-25.4,10.57-12.42,2-22-3l0,0a28.59,28.59,0,0,1-3.19-1.94c-7.06-4.81-11.44-12.73-13.16-23.68-1.07-6.63.31-12.32,4.09-17a24.91,24.91,0,0,1,4.41-4.26,21.42,21.42,0,0,1,9.45-4.06,3.63,3.63,0,0,1,.59-.13A19.35,19.35,0,0,1,604,554.73c4.29,3,7,7.73,8,14.24q6.44-1,10.26-9.73a32.25,32.25,0,0,0,2.35-18.52c-1.54-9.54-5.16-16.51-10.92-20.86s-12.39-5.91-19.92-4.72c-6.63,1-12.86,4.22-18.58,9.47s-10,12.45-12.92,21.46c0,.09,0,.22-.06.31s0,0,0,.07c-2.79,8.94-3.23,19.17-1.44,30.62q3.42,21.52,14.89,36a61.28,61.28,0,0,0,28,20.27,69.45,69.45,0,0,0,34.47,3q22.05-3.48,39.47-21.12,13.1-13.17,21.65-37.25c.9-2.47,1.75-5.06,2.56-7.72.34-1.22.75-2.47,1.09-3.76.54-1.87,1.07-3.81,1.57-5.78.41-1.57.78-3.16,1.16-4.82l.75-22.27.53-15.48v0l.31-9L709,459.49l.16-4.16.09-3.12Zm-60.62-7.54c-2.12.88-4.19,1.88-6.13,2.66a25.85,25.85,0,0,1,4.79-7c6.41-6.85,16.11-10.17,23-2.44a92.13,92.13,0,0,0-5.92,7.07C659.69,440.63,654,442.26,648.55,444.54Z" transform="translate(-559.72 -324.72)"/><path d="M618.9,492.43c-28.34.63-51.76,23.15-56.58,53.64,0,.09,0,.22-.06.31s0,0,0,.07c-.25,1.53-.44,3.12-.6,4.72-1.53,17.51,1.94,34.37,9.17,50.48a122.06,122.06,0,0,0,7.28,13.76,28.52,28.52,0,0,1,2.57,2.19c1.84,1.79,3.5,3.79,5.28,5.66a6.55,6.55,0,0,0,.66.63,124.29,124.29,0,0,0,11.95,5.5A100.49,100.49,0,0,0,617,634.93l9.86-1.56c-16.74-4-30.84-15.52-39.44-30.78l0,0a69.43,69.43,0,0,1-7.85-46.92c.22-1.12.41-2.22.69-3.34.91-3.79,2.79-7.29,4.82-12.48,1.72,5.25,2.56,8.38,3.75,11.35.06.16.13.28.19.41,5.29,12.67,13,22.8,26,26.4,18,4.88,39.13-5.54,46.7-23C674.54,525.87,651.24,491.74,618.9,492.43Zm-1.25,27.05q-4.12-12.33-6.72-18c25.92-10.7,47.73,17.26,49.79,41.44C648.68,531.75,635.1,514.39,617.65,519.48Z" transform="translate(-559.72 -324.72)"/><path d="M693.21,373.89A114.46,114.46,0,0,1,696,397" transform="translate(-559.72 -324.72)"/><path d="M689.54,368.67a254.3,254.3,0,0,1,6.66,47" transform="translate(-559.72 -324.72)"/><path d="M687.48,367.66c2.56,3.6,2.67,8.31,3.59,12.63.81,3.82,2.31,7.46,3.48,11.19a66.18,66.18,0,0,1,3,22.23" transform="translate(-559.72 -324.72)"/><path d="M692.32,381.49c.45,10.09,2,20.09,3.55,30.06" transform="translate(-559.72 -324.72)"/><path d="M1156.28,494.31l-.59-3.19-1.13-6.17L1148,449.61l-.47-2.5-.38-1.91-.06-.22-1-3.56,0-.1-6.48-23.17a2.93,2.93,0,0,0-.31-.29c-1.16-.84-2.41-1.5-3.63-2.22-.69-.4-1.37-.81-2-1.25a13.48,13.48,0,0,1-1.47-1.25c-.53-.53-1.1-1.13-1.69-1.72a255,255,0,0,1,7.26,30.4c.28,1.63.56,3.26.78,4.88a241.91,241.91,0,0,1,2.56,24.62c.07,1.31.13,2.59.16,3.88v0a163.86,163.86,0,0,1-.44,20.2,96.94,96.94,0,0,1-5.94,27.25,51.27,51.27,0,0,1-9.57,15.88,32.65,32.65,0,0,1-12.45,9,18.07,18.07,0,0,1-12.39.47,12.85,12.85,0,0,1-2-.84c-4.47-2.16-7.88-6.45-10.26-12.83a13.59,13.59,0,0,1,0-10.63,10.49,10.49,0,0,1,.75-1.41,17.14,17.14,0,0,1,1.1-1.63,11.39,11.39,0,0,1,4.63-3.41.87.87,0,0,1,.31-.12,10,10,0,0,1,8.29.44c2.72,1.37,4.81,3.91,6.22,7.69l.22-.09c2.1-.91,3.47-3.16,4.1-6.79a21.16,21.16,0,0,0-1.16-11.35c-.06-.13-.09-.25-.16-.38-2-5.38-4.87-9.07-8.47-11a13.24,13.24,0,0,0-11.48-.78,18.28,18.28,0,0,0-8.88,7.63,29.21,29.21,0,0,0-4.26,14.2v.22a27.15,27.15,0,0,0,0,3.13,46.72,46.72,0,0,0,3.25,15.39c3.1,8.38,7.35,15,12.8,20,.69.62,1.37,1.22,2.06,1.78a34.36,34.36,0,0,0,15.86,7.47,35.23,35.23,0,0,0,19.17-1.78c7.7-2.91,14-8.51,18.74-16.73a49.15,49.15,0,0,0,5-13,91.56,91.56,0,0,0,2.29-16.52c.06-.78.09-1.56.12-2.34.06-1.19.1-2.41.1-3.66,0-1,0-2,0-3Zm-67.78,6.78a22.61,22.61,0,0,1,11.92-4.75c-1.22,1.28-2.59,2.63-4,4-3.66,3.79-7,8-5.54,13.2a77,77,0,0,0-7.25,2.63c-2.44-6,.25-11.39,4.81-15Z" transform="translate(-559.72 -324.72)"/><path d="M1127.77,417.73a146.45,146.45,0,0,0-13.22-26.92,19.17,19.17,0,0,1,3.07-4.23c1.7-1.86,3.5-3.68,5.3-5.46,2.8-2.76,5.65-5.47,8.51-8.18.17.36.33.7.49,1.07l3,14.08,2.1,9.78,7.9,37,.56,2.63.42,2,3.17,29.65c-.08.14-.15.28-.24.42-.94,1.4-2.07,2.67-3.14,4-.59.73-1.2,1.46-1.74,2.24a14.18,14.18,0,0,0-1.09,1.94c-.38.77-.74,1.63-1.15,2.48a233.08,233.08,0,0,0-5-32.65A221.61,221.61,0,0,0,1127.77,417.73Z" transform="translate(-559.72 -324.72)"/></svg>