<svg id="Calque_1" data-name="Calque 1" xmlns="http://www.w3.org/2000/svg" xmlns:xlink="http://www.w3.org/1999/xlink" viewBox="0 0 2427.33 4036.46"><defs><style>.cls-1{fill:none;}.cls-2{clip-path:url(#clip-path);}</style><clipPath id="clip-path" transform="translate(255 -16)"><rect class="cls-1" x="-1.5" y="-3.5" width="1925" height="4147"/></clipPath></defs><g class="cls-2"><image width="512" height="512" transform="matrix(0.58, 0.48, -0.48, 0.58, 2131.48, 2801.67)" xlink:href="french-horn.png"/><image width="512" height="512" transform="translate(0 2913.69) rotate(-36.92) scale(0.75)" xlink:href="accordion.png"/><image width="512" height="512" transform="translate(1699 957) scale(0.75)" xlink:href="acoustic-guitar.png"/><image width="512" height="512" transform="translate(1782 3633) scale(0.75)" xlink:href="maracas.png"/><image width="512" height="512" transform="translate(824.53 1489.85) rotate(128.46) scale(0.75)" xlink:href="melodica.png"/><image width="512" height="512" transform="matrix(0.21, -0.72, 0.72, 0.21, 1811, 2458.45)" xlink:href="microphone.png"/><image width="512" height="512" transform="matrix(0.09, -0.74, 0.74, 0.09, 523.39, 3989.51)" xlink:href="violin.png"/><image width="512" height="512" transform="translate(2036.21 1246) rotate(15.28) scale(0.75)" xlink:href="harp.png"/><image width="512" height="512" transform="translate(226 2208.04) rotate(-30.18) scale(0.75)" xlink:href="saxophone.png"/><image width="512" height="512" transform="translate(1733 358.23) rotate(-68.89) scale(0.75)" xlink:href="trumpet.png"/><image width="512" height="512" transform="translate(315 31) scale(0.75)" xlink:href="bass.png"/></g></svg>